HIERARCHY
ROOT Hips
{
    OFFSET 0.000000 0.000000 0.000000
    CHANNELS 6 Xposition Yposition Zposition Zrotation Xrotation Yrotation
    JOINT Spine
    {
        OFFSET -0.000000 7.979263 0.000000
        CHANNELS 3 Zrotation Xrotation Yrotation
        JOINT Spine1
        {
            OFFSET -0.000000 24.719021 0.000000
            CHANNELS 3 Zrotation Xrotation Yrotation
            JOINT Neck
            {
                OFFSET -0.000000 24.617504 2.237955
                CHANNELS 3 Zrotation Xrotation Yrotation
                JOINT Head
                {
                    OFFSET -0.000000 13.623132 -1.946162
                    CHANNELS 3 Zrotation Xrotation Yrotation
                    End Site
                    {
                        OFFSET -0.000000 24.327021 0.000000
                    }
                }
            }
            JOINT LeftShoulder
            {
                OFFSET 3.885773 23.018444 -0.302444
                CHANNELS 3 Zrotation Xrotation Yrotation
                JOINT LeftArm
                {
                    OFFSET 10.447750 0.000000 0.000000
                    CHANNELS 3 Zrotation Xrotation Yrotation
                    JOINT LeftForeArm
                    {
                        OFFSET 29.090096 0.000000 0.000000
                        CHANNELS 3 Zrotation Xrotation Yrotation
                        JOINT LeftHand
                        {
                            OFFSET 28.893339 0.000000 0.000000
                            CHANNELS 3 Zrotation Xrotation Yrotation
                            End Site
                            {
                                OFFSET 14.596213 0.000000 0.000000
                            }
                        }
                    }
                }
            }
            JOINT RightShoulder
            {
                OFFSET -3.864586 23.018444 -0.302444
                CHANNELS 3 Zrotation Xrotation Yrotation
                JOINT RightArm
                {
                    OFFSET -10.447750 0.000000 0.000000
                    CHANNELS 3 Zrotation Xrotation Yrotation
                    JOINT RightForeArm
                    {
                        OFFSET -29.090096 0.000000 0.000000
                        CHANNELS 3 Zrotation Xrotation Yrotation
                        JOINT RightHand
                        {
                            OFFSET -28.893339 0.000000 0.000000
                            CHANNELS 3 Zrotation Xrotation Yrotation
                            End Site
                            {
                                OFFSET -14.596213 0.000000 0.000000
                            }
                        }
                    }
                }
            }
        }
    }
    JOINT LeftUpLeg
    {
        OFFSET 9.730808 0.000000 0.000000
        CHANNELS 3 Zrotation Xrotation Yrotation
        JOINT LeftLeg
        {
            OFFSET -0.000000 -34.800129 0.000000
            CHANNELS 3 Zrotation Xrotation Yrotation
            JOINT LeftFoot
            {
                OFFSET -0.000000 -44.597416 0.000000
                CHANNELS 3 Zrotation Xrotation Yrotation
                JOINT LeftToeBase
                {
                    OFFSET -0.000000 -6.325025 14.596213
                    CHANNELS 3 Zrotation Xrotation Yrotation
                    End Site
                    {
                        OFFSET -0.000000 0.000000 3.892323
                    }
                }
            }
        }
    }
    JOINT RightUpLeg
    {
        OFFSET -9.730808 0.000000 0.000000
        CHANNELS 3 Zrotation Xrotation Yrotation
        JOINT RightLeg
        {
            OFFSET -0.000000 -34.800129 0.000000
            CHANNELS 3 Zrotation Xrotation Yrotation
            JOINT RightFoot
            {
                OFFSET -0.000000 -44.597416 0.000000
                CHANNELS 3 Zrotation Xrotation Yrotation
                JOINT RightToeBase
                {
                    OFFSET -0.000000 -6.325025 14.596213
                    CHANNELS 3 Zrotation Xrotation Yrotation
                    End Site
                    {
                        OFFSET -0.000000 0.000000 3.892323
                    }
                }
            }
        }
    }
}
MOTION
Frames:    9
Frame Time:    0.008333
11.394595    85.643372    52.094315    1.597105    0.630091    90.975555    -0.346815    -8.760379    -0.026563    -1.269832    -2.339835    -0.018742    2.604017    23.195877    0.082476    -1.679324    -0.409561    0.014366    16.482578    1.374349    -11.633169    -15.400557    5.179566    5.225336    3.066736    -1.506971    -0.036102    -7.021434    -1.602447    1.572728    -12.598575    2.137597    -6.066227    9.359767    6.889283    10.768341    -0.877982    1.774908    -2.162365    4.664595    1.838330    1.964551    1.586310    6.026128    -0.261964    -1.198231    1.516292    -0.766590    -1.669977    -4.766836    11.157701    0.000000    0.000000    0.000000    -2.619553    8.861777    -1.751292    2.951388    0.106204    -1.672472    -0.374208    -6.597142    -10.763007    0.000000    0.000000    0.000000    
11.393566    85.644104    52.092522    1.598371    0.628426    90.972389    -0.350420    -8.768605    -0.026865    -1.257989    -2.310553    -0.014222    2.526565    23.125738    0.031602    -1.543905    -0.388332    -0.025459    16.465620    1.361574    -11.622059    -15.391829    5.216501    5.225136    3.035606    -1.587824    -0.054883    -6.861417    -1.687194    1.681817    -12.624825    2.138218    -6.077444    9.379150    6.874761    10.778399    -0.854593    1.715451    -2.137362    4.500081    1.773687    1.888538    1.585448    6.030079    -0.250640    -1.196125    1.508488    -0.713501    -1.654585    -4.752795    11.091295    0.000000    0.000000    0.000000    -2.613516    8.858534    -1.757968    2.940350    0.106649    -1.694402    -0.358519    -6.590206    -10.737666    0.000000    0.000000    0.000000    
11.389710    85.642662    52.092648    1.587340    0.621201    90.969467    -0.345019    -8.775111    -0.016575    -1.261895    -2.311333    -0.015379    2.478514    23.048769    -0.015621    -1.423787    -0.324149    -0.061468    16.471403    1.358804    -11.640716    -15.392294    5.206202    5.241827    3.036894    -1.599353    -0.049112    -6.894436    -1.697696    1.655012    -12.624193    2.161992    -6.078562    9.388657    6.876725    10.777802    -0.884070    1.751833    -2.160343    4.632788    1.814570    1.963511    1.594937    6.011487    -0.227902    -1.201178    1.520365    -0.796688    -1.645881    -4.763330    11.155367    0.000000    0.000000    0.000000    -2.610846    8.847471    -1.727047    2.946692    0.106587    -1.685513    -0.336861    -6.604498    -10.811459    0.000000    0.000000    0.000000    
11.389114    85.642372    52.091251    1.585494    0.620395    90.958717    -0.370057    -8.783344    -0.006299    -1.207694    -2.291687    -0.000179    2.395302    23.040474    -0.071944    -1.297906    -0.394811    -0.108397    16.471403    1.358804    -11.640716    -15.392294    5.206202    5.241827    3.036894    -1.599353    -0.049112    -6.894436    -1.697696    1.655012    -12.624193    2.161992    -6.078562    9.388657    6.876725    10.777802    -0.884070    1.751833    -2.160343    4.632788    1.814570    1.963511    1.593107    6.017776    -0.232173    -1.197518    1.505810    -0.735502    -1.656265    -4.757486    11.101846    0.000000    0.000000    0.000000    -2.609429    8.844972    -1.715440    2.942193    0.100802    -1.694667    -0.319655    -6.601330    -10.807853    0.000000    0.000000    0.000000    
11.385419    85.641800    52.090038    1.576206    0.618114    90.954781    -0.367843    -8.794603    -0.002115    -1.213016    -2.275665    0.002200    2.390523    23.029505    -0.121910    -1.236460    -0.466542    -0.150903    16.443378    1.350915    -11.657804    -15.383121    5.195772    5.260914    3.072266    -1.542143    -0.044287    -7.120286    -1.635940    1.526493    -12.667173    2.174227    -6.096768    9.418675    6.842141    10.770117    -0.890931    1.765823    -2.143151    4.651677    1.827448    1.927181    1.596218    6.005744    -0.235753    -1.204061    1.503789    -0.716900    -1.653761    -4.755417    11.091031    0.000000    0.000000    0.000000    -2.609203    8.822075    -1.750231    2.941929    0.112356    -1.693366    -0.356331    -6.587763    -10.732097    0.000000    0.000000    0.000000    
11.383417    85.641861    52.085983    1.568892    0.625106    90.953697    -0.381641    -8.804299    0.001900    -1.197873    -2.264215    0.007256    2.356556    23.024353    -0.147641    -1.151633    -0.538653    -0.180510    16.425779    1.355154    -11.656034    -15.366571    5.188195    5.256388    3.064813    -1.523321    -0.052790    -7.147229    -1.617278    1.526703    -12.675992    2.175100    -6.111708    9.416005    6.834336    10.780415    -0.884722    1.773361    -2.147203    4.633140    1.834602    1.923595    1.585371    5.998730    -0.242696    -1.203024    1.508084    -0.769708    -1.661487    -4.766737    11.154348    0.000000    0.000000    0.000000    -2.628726    8.813889    -1.732472    2.959941    0.118377    -1.683964    -0.371975    -6.593636    -10.757717    0.000000    0.000000    0.000000    
11.380403    85.641029    52.086388    1.563894    0.617740    90.951195    -0.388033    -8.814813    0.010878    -1.188364    -2.241158    0.018652    2.364068    23.163057    -0.241855    -1.070381    -0.850281    -0.255829    16.467093    1.339890    -11.670891    -15.406123    5.162954    5.258010    3.061059    -1.488866    -0.048745    -7.180573    -1.583207    1.524404    -12.678316    2.168936    -6.117832    9.425011    6.826847    10.759516    -0.882945    1.779038    -2.144594    4.621002    1.840251    1.926523    1.593484    5.994874    -0.258251    -1.203957    1.500004    -0.718627    -1.659047    -4.767833    11.116034    0.000000    0.000000    0.000000    -2.611214    8.804373    -1.766512    2.939138    0.117713    -1.684759    -0.326289    -6.603222    -10.760665    0.000000    0.000000    0.000000    
11.377403    85.641891    52.085983    1.556772    0.612227    90.944847    -0.388519    -8.831623    0.011962    -1.170409    -2.207805    0.020697    2.346614    23.182283    -0.268791    -1.024985    -0.986602    -0.278269    16.445404    1.326137    -11.649776    -15.390325    5.146358    5.253493    3.052291    -1.468257    -0.061310    -7.145522    -1.562372    1.533853    -12.697888    2.158324    -6.125213    9.434031    6.824886    10.770894    -0.868557    1.762114    -2.148734    4.448139    1.820261    1.917568    1.597867    5.987340    -0.247699    -1.202845    1.499864    -0.706305    -1.643731    -4.764621    11.102946    0.000000    0.000000    0.000000    -2.612641    8.788838    -1.730821    2.951456    0.128278    -1.690733    -0.366618    -6.589719    -10.743398    0.000000    0.000000    0.000000    
11.374436    85.639687    52.084850    1.549965    0.611465    90.940018    -0.389474    -8.837269    0.009467    -1.165092    -2.200007    0.017618    2.317745    23.172802    -0.285138    -0.948536    -1.047613    -0.286692    16.431845    1.330674    -11.637660    -15.385287    5.171140    5.261888    3.056239    -1.473574    -0.070738    -7.099558    -1.567035    1.536669    -12.679362    2.163156    -6.112617    9.408116    6.811410    10.778295    -0.860083    1.765710    -2.167837    4.446866    1.824321    1.928481    1.598883    5.977512    -0.249886    -1.205809    1.498069    -0.705461    -1.666309    -4.774914    11.103137    0.000000    0.000000    0.000000    -2.616024    8.776829    -1.703559    2.952744    0.132629    -1.708867    -0.359727    -6.600284    -10.740388    0.000000    0.000000    0.000000    
